<svg xmlns="http://www.w3.org/2000/svg" xmlns:xlink="http://www.w3.org/1999/xlink" width="1920" zoomAndPan="magnify" viewBox="0 0 1440 809.999993" height="1080" preserveAspectRatio="xMidYMid meet" version="1.0"><path fill="#000000" d="M 875.871094 45.550781 C 876.1875 46.375 883.121094 51.472656 891.273438 56.878906 C 908.710938 68.441406 919.726562 76.230469 937.367188 89.46875 C 944.222656 94.613281 978.363281 122.160156 981.652344 125.203125 C 983.675781 127.078125 986.785156 129.789062 988.558594 131.230469 C 990.332031 132.671875 991.992188 134.0625 992.246094 134.324219 C 992.5 134.585938 997.058594 138.714844 1002.378906 143.5 C 1021.410156 160.609375 1058.8125 198.933594 1077.960938 220.945312 C 1081.707031 225.25 1084.996094 228.980469 1085.265625 229.234375 C 1085.535156 229.488281 1087.832031 232.183594 1090.363281 235.222656 C 1092.898438 238.257812 1095.875 241.785156 1096.976562 243.050781 C 1105.855469 253.269531 1110.1875 259.386719 1110.332031 261.914062 C 1110.777344 269.597656 1110.050781 272.027344 1105.5625 277.855469 C 1094.898438 291.707031 1079.929688 309.34375 1065.507812 325.042969 C 1053.570312 338.039062 1006.230469 385.003906 996.082031 393.914062 C 990.171875 399.109375 984.09375 404.503906 982.570312 405.902344 C 981.050781 407.304688 977.320312 410.519531 974.28125 413.046875 C 971.238281 415.574219 968.546875 417.863281 968.292969 418.132812 C 967.539062 418.929688 946.347656 435.675781 937.890625 442.152344 C 933.582031 445.449219 923.21875 452.839844 914.855469 458.574219 C 898.527344 469.773438 897.566406 470.40625 884.753906 478.398438 C 880.105469 481.296875 876.074219 484.253906 875.800781 484.972656 C 875.367188 486.09375 886.496094 486.28125 954.351562 486.28125 L 1033.402344 486.28125 L 1038.851562 482.417969 C 1043.648438 479.015625 1062.429688 464.351562 1068.050781 459.625 C 1100.464844 432.34375 1117.554688 416.042969 1150.25 381.222656 C 1161.007812 369.765625 1172.65625 356.460938 1175.554688 352.316406 C 1176.296875 351.253906 1177.65625 349.570312 1178.578125 348.566406 C 1179.5 347.570312 1182.621094 343.628906 1185.519531 339.816406 C 1188.417969 336.003906 1191.558594 332.054688 1192.5 331.039062 C 1193.441406 330.027344 1196.449219 326.085938 1199.175781 322.285156 C 1202.265625 317.984375 1205.363281 313.683594 1208.464844 309.390625 C 1215.996094 298.960938 1235.527344 268.476562 1236.078125 266.292969 C 1236.617188 264.144531 1235.242188 261.8125 1218.046875 235.683594 C 1211.101562 225.128906 1198.5625 207.433594 1193.820312 201.496094 C 1190.933594 197.851562 1188.058594 194.199219 1185.191406 190.539062 C 1176.59375 179.570312 1167.429688 168.46875 1165.417969 166.585938 C 1165.148438 166.332031 1164.050781 164.984375 1162.980469 163.589844 C 1155.109375 153.328125 1117.558594 114.8125 1099.578125 98.554688 C 1092.484375 92.144531 1086.234375 86.480469 1085.6875 85.972656 C 1085.144531 85.46875 1082.285156 82.976562 1079.332031 80.445312 C 1076.378906 77.910156 1073.507812 75.421875 1072.949219 74.917969 C 1069.183594 71.492188 1055.292969 60.535156 1042.539062 50.929688 L 1033.402344 44.054688 L 954.351562 44.054688 C 881.746094 44.054688 875.34375 44.175781 875.875 45.550781 M 370.769531 47.53125 C 369.785156 48.433594 367.53125 50.171875 365.757812 51.394531 C 357.179688 57.308594 323.339844 85.117188 311.402344 96.066406 C 296.480469 109.746094 261.984375 144.179688 256.457031 150.910156 C 255.007812 152.675781 252.625 155.371094 251.167969 156.898438 C 247.527344 160.710938 228.675781 183.054688 221.605469 191.9375 C 219.597656 194.464844 217.710938 196.734375 217.414062 196.988281 C 217.121094 197.242188 212.714844 203.046875 207.628906 209.886719 C 193.375 229.058594 177.144531 253.507812 176.046875 257.460938 C 174.222656 264.027344 174.796875 270.792969 177.640625 276.285156 C 183.753906 288.082031 210.765625 326.886719 219.699219 336.695312 C 220.222656 337.269531 222.3125 339.929688 224.339844 342.601562 C 242.382812 366.382812 284.421875 411.335938 309.558594 433.734375 C 314.878906 438.472656 320.894531 443.839844 322.929688 445.660156 C 337.207031 458.4375 364.1875 479.976562 371.507812 484.441406 C 374.441406 486.230469 376.304688 486.273438 453.484375 486.277344 C 522.621094 486.28125 532.390625 486.109375 531.9375 484.925781 C 531.652344 484.179688 527.84375 481.417969 523.476562 478.789062 C 511.371094 471.503906 474.324219 446.492188 471.167969 443.472656 C 470.617188 442.949219 466.9375 440.03125 462.992188 436.988281 C 453.660156 429.796875 434.367188 414.148438 430.246094 410.421875 C 428.472656 408.820312 423.707031 404.605469 419.65625 401.058594 C 392.632812 377.398438 348.851562 333.617188 329.367188 310.769531 C 326.339844 307.222656 323.652344 304.113281 323.390625 303.859375 C 322.070312 302.578125 316.136719 295.554688 313.703125 292.402344 C 312.183594 290.429688 308.242188 285.464844 304.945312 281.367188 C 301.648438 277.269531 298.4375 272.757812 297.804688 271.339844 C 296.347656 268.0625 296.339844 263.21875 297.789062 259.910156 C 299.664062 255.617188 328.898438 221.164062 349.605469 198.84375 C 363.507812 183.855469 408.304688 139.6875 416.894531 132.492188 C 418.414062 131.222656 423.800781 126.660156 428.867188 122.351562 C 433.933594 118.046875 440.152344 112.871094 442.6875 110.855469 C 445.222656 108.839844 448.125 106.429688 449.136719 105.5 C 450.148438 104.570312 457.566406 98.964844 465.617188 93.046875 C 473.667969 87.128906 482.996094 80.269531 486.34375 77.804688 C 492.9375 72.953125 513.058594 59.253906 516.941406 56.972656 C 524.367188 52.613281 532.5 47.183594 532.507812 46.585938 C 532.511719 46.207031 496.523438 45.894531 452.535156 45.894531 C 377.183594 45.894531 372.453125 45.992188 370.769531 47.53125 M 817.765625 84.585938 C 800.59375 90.097656 786.25 94.941406 785.890625 95.355469 C 785.527344 95.769531 766.304688 117.332031 743.171875 143.273438 C 720.039062 169.214844 701.113281 190.90625 701.113281 191.46875 C 701.113281 192.035156 707.816406 200.039062 716.011719 209.253906 C 724.207031 218.46875 731.183594 226.335938 731.519531 226.730469 C 731.851562 227.125 754.273438 207.6875 781.339844 183.535156 C 808.410156 159.382812 830.691406 139.507812 830.859375 139.367188 C 831.28125 139.007812 851.285156 76.199219 851.285156 75.234375 C 851.285156 74.804688 850.769531 74.480469 850.132812 74.511719 C 849.5 74.546875 834.933594 79.078125 817.765625 84.585938 M 545.414062 84.210938 C 545.414062 84.921875 565.640625 148.449219 565.925781 148.632812 C 566.042969 148.710938 619.535156 196.3125 684.789062 254.417969 C 750.046875 312.519531 803.742188 360.0625 804.117188 360.0625 C 804.488281 360.0625 808.851562 355.988281 813.8125 351.007812 L 822.828125 341.957031 L 717.21875 223.640625 C 659.132812 158.5625 610.914062 104.839844 610.0625 104.253906 C 608.5625 103.21875 547.980469 83.667969 546.273438 83.667969 C 545.800781 83.667969 545.414062 83.914062 545.414062 84.210938 M 617.734375 283.652344 C 596.960938 306.917969 578.628906 327.539062 577 329.46875 L 574.035156 332.976562 L 583.449219 342.296875 L 592.859375 351.613281 L 639.386719 310.121094 C 664.976562 287.296875 685.910156 268.316406 685.910156 267.9375 C 685.910156 267.058594 657.054688 241.191406 656.171875 241.277344 C 655.804688 241.316406 638.511719 260.382812 617.734375 283.652344 M 541.691406 290.539062 L 530.226562 302.03125 L 547.949219 319.753906 L 565.675781 337.476562 L 570.765625 332.382812 L 575.859375 327.292969 L 564.695312 303.367188 C 558.558594 290.210938 553.449219 279.355469 553.34375 279.246094 C 553.238281 279.136719 547.996094 284.21875 541.691406 290.539062 M 832.183594 312.414062 L 820.914062 336.566406 L 825.96875 341.628906 L 831.023438 346.6875 L 848.753906 328.960938 L 866.480469 311.234375 L 854.96875 299.746094 L 843.453125 288.257812 Z M 538.988281 368.980469 C 511.238281 397.167969 509.617188 398.632812 496.941406 407.097656 L 483.757812 415.898438 L 496.605469 428.71875 C 504.535156 436.632812 509.761719 441.195312 510.265625 440.644531 C 510.71875 440.15625 514.5 434.570312 518.675781 428.238281 C 525.628906 417.691406 528.761719 414.21875 555.875 387.007812 L 585.476562 357.296875 L 576.664062 348.484375 L 567.851562 339.667969 Z M 819.960938 357.757812 L 811.246094 366.507812 L 841.683594 397.144531 C 869.742188 425.382812 872.695312 428.660156 879.441406 439.046875 C 883.464844 445.242188 886.96875 450.320312 887.230469 450.332031 C 887.488281 450.339844 893.421875 444.617188 900.410156 437.613281 L 913.121094 424.878906 L 901.320312 417.167969 C 890.347656 409.996094 887.390625 407.339844 859.097656 379.230469 L 828.679688 349.003906 Z M 592.953125 354.761719 L 587.683594 359.601562 L 605.707031 377.558594 L 623.726562 395.515625 L 634.988281 384.257812 C 642.273438 376.972656 645.929688 372.683594 645.347656 372.105469 C 644.640625 371.398438 599.21875 349.925781 598.429688 349.925781 C 598.316406 349.925781 595.851562 352.101562 592.953125 354.761719 M 782.648438 366.1875 C 774.542969 370.011719 763.988281 374.976562 759.195312 377.222656 L 750.484375 381.304688 L 773.414062 404.289062 L 791.148438 386.570312 L 808.886719 368.851562 L 804.089844 363.996094 C 801.453125 361.324219 798.867188 359.160156 798.34375 359.1875 C 797.816406 359.210938 790.757812 362.363281 782.648438 366.1875 M 317.207031 538.179688 C 307.984375 544.34375 292.554688 554.363281 282.914062 560.445312 C 273.273438 566.523438 259.675781 575.117188 252.695312 579.542969 C 245.710938 583.964844 235.773438 589.90625 230.605469 592.746094 C 225.4375 595.585938 220.828125 598.394531 220.363281 598.984375 C 218.765625 601.011719 213.765625 614.804688 210.621094 625.855469 C 198.785156 667.503906 207.292969 707.320312 233.613281 733.425781 C 245.8125 745.523438 264.3125 755.964844 281.609375 760.511719 C 299.15625 765.121094 322.328125 764.460938 339.960938 758.84375 C 348.296875 756.191406 364.835938 748.097656 373.386719 742.496094 C 377.328125 739.910156 380.753906 737.796875 380.992188 737.796875 C 381.230469 737.796875 392.21875 745.507812 405.402344 754.929688 C 426.574219 770.0625 429.566406 771.921875 430.964844 770.84375 C 433.960938 768.527344 455.484375 750.230469 459.21875 746.824219 C 462.289062 744.023438 462.78125 743.128906 461.972656 741.816406 C 459.710938 738.148438 458.273438 738.222656 453.710938 742.238281 C 451.304688 744.355469 449.007812 746.085938 448.605469 746.085938 C 448.203125 746.085938 444.578125 743.703125 440.550781 740.789062 C 433.929688 736 427.308594 731.214844 420.683594 726.429688 C 413.785156 721.441406 408.144531 717.089844 408.148438 716.753906 C 408.15625 716.417969 412.507812 711.675781 417.824219 706.21875 C 445.914062 677.359375 458.421875 650.746094 456.644531 623.628906 C 454.257812 587.25 429.863281 556.136719 390.570312 539.363281 C 377.167969 533.640625 355.457031 528.46875 340.421875 527.417969 L 333.972656 526.96875 Z M 684.988281 541.789062 C 684.433594 543.371094 677.957031 572.085938 677.769531 573.804688 C 677.671875 574.71875 678.59375 575.28125 680.507812 575.464844 C 683.640625 575.769531 684.710938 574.765625 689.257812 567.226562 C 690.59375 565.015625 694.460938 558.871094 697.851562 553.574219 C 701.242188 548.273438 704.414062 543.195312 704.902344 542.289062 C 705.726562 540.746094 705.105469 540.636719 695.589844 540.636719 C 688.261719 540.636719 685.28125 540.960938 684.988281 541.789062 M 1075.105469 568.964844 C 1051.570312 598.097656 1046.054688 604.898438 1043.199219 608.289062 C 1040.78125 611.164062 1040.152344 612.726562 1040.152344 615.886719 L 1040.152344 619.867188 L 1054.96875 619.867188 L 1054.699219 670.769531 C 1054.441406 720.113281 1054.375 721.800781 1052.515625 725.820312 C 1051.457031 728.097656 1049.074219 731.300781 1047.21875 732.929688 C 1042.1875 737.347656 1042.679688 739.101562 1049.597656 741.40625 C 1057.835938 744.148438 1069.660156 751.089844 1077.527344 757.804688 C 1081.257812 760.988281 1084.550781 763.59375 1084.84375 763.59375 C 1085.246094 763.59375 1114.40625 740.589844 1118.78125 736.820312 C 1119.679688 736.046875 1116.859375 731.347656 1115.496094 731.347656 C 1114.992188 731.347656 1112.515625 732.992188 1109.988281 735.007812 L 1105.390625 738.664062 L 1102.480469 736.617188 C 1099.589844 734.566406 1096.710938 732.503906 1093.839844 730.425781 L 1088.109375 726.277344 L 1088.085938 673.097656 L 1088.0625 619.914062 L 1103.492188 619.660156 L 1118.925781 619.40625 L 1119.1875 610.425781 L 1119.453125 601.441406 L 1087.910156 601.441406 L 1088.578125 579.332031 L 1089.246094 557.21875 L 1086.917969 557.21875 C 1085.050781 557.21875 1082.730469 559.523438 1075.105469 568.964844 M 302.179688 609.042969 C 302.175781 639.605469 301.792969 662.289062 301.222656 665.804688 C 299.382812 677.148438 296.113281 681.65625 275.46875 701.292969 C 269.136719 707.320312 263.953125 712.582031 263.953125 712.992188 C 263.953125 714.484375 277.019531 724.09375 283.753906 727.558594 C 294.9375 733.308594 308.046875 736.875 318.019531 736.875 L 322.457031 736.875 L 322.457031 648.066406 C 322.457031 567.9375 322.3125 559.207031 321 558.699219 C 320.199219 558.390625 315.636719 558.140625 310.863281 558.140625 L 302.1875 558.140625 Z M 329.828125 579.75 L 329.828125 600.4375 L 335.292969 604.863281 C 349.507812 616.359375 368.148438 621.324219 384.371094 617.921875 C 391.078125 616.519531 402.238281 610.578125 408.195312 605.246094 L 413.144531 600.808594 L 411.410156 598.132812 C 408.199219 593.175781 397.601562 583.8125 389.710938 578.960938 C 381.203125 573.730469 367.351562 567.457031 359.308594 565.191406 C 354.8125 563.921875 331.882812 559.0625 330.402344 559.0625 C 330.085938 559.0625 329.828125 568.371094 329.828125 579.75 M 261.460938 584.757812 C 257.558594 587.898438 252.640625 592.417969 250.535156 594.804688 C 242.324219 604.101562 235.535156 618.710938 233.136719 632.246094 C 230.910156 644.824219 232.796875 663.304688 237.617188 676.066406 C 240.152344 682.792969 247.230469 694.878906 252.746094 701.917969 L 257.203125 707.601562 L 260.289062 704.609375 C 264.765625 700.269531 267.195312 693.800781 268.203125 683.550781 C 268.683594 678.675781 268.957031 653.167969 268.816406 626.867188 L 268.558594 579.046875 Z M 494.636719 609.769531 C 485.320312 617.894531 477.550781 624.96875 477.371094 625.484375 C 476.996094 626.574219 479.867188 630.003906 481.160156 630.003906 C 481.644531 630.003906 483.269531 628.964844 484.773438 627.699219 C 487.46875 625.433594 490.628906 624.773438 492.4375 626.101562 C 496.144531 628.824219 496.105469 628.277344 496.597656 681.046875 L 497.070312 731.808594 L 499.265625 737.335938 C 500.472656 740.375 502.621094 744.5625 504.039062 746.640625 C 506.804688 750.695312 520.15625 763.59375 521.589844 763.59375 C 522.066406 763.59375 527.308594 759.542969 533.242188 754.597656 C 544.128906 745.519531 552.585938 739.050781 564.171875 730.929688 C 568.648438 727.792969 570.695312 726.828125 571.183594 727.621094 C 571.566406 728.238281 572.121094 731.667969 572.421875 735.246094 C 573.15625 744.023438 576.277344 750.136719 583.367188 756.703125 C 592.597656 765.246094 590.855469 765.59375 608.984375 751.585938 C 617.6875 744.859375 625.039062 738.765625 625.316406 738.039062 C 625.59375 737.316406 624.957031 735.855469 623.898438 734.796875 L 621.976562 732.875 L 618.269531 735.441406 C 613.125 739.007812 610.652344 738.230469 607.378906 732.023438 L 604.835938 727.199219 L 604.570312 678.71875 L 604.300781 630.234375 L 610.328125 624.714844 C 613.640625 621.675781 616.335938 618.824219 616.316406 618.378906 C 616.28125 617.597656 590.269531 595.765625 588.652344 595.160156 C 587.699219 594.800781 561.640625 616.90625 561.28125 618.378906 C 561.140625 618.953125 563.316406 621.683594 566.117188 624.449219 L 571.210938 629.480469 L 571.148438 717.066406 L 559.429688 725.59375 C 552.988281 730.285156 546.582031 734.976562 545.195312 736.023438 L 542.679688 737.925781 L 537.46875 733.023438 C 528.863281 724.925781 529.328125 728.082031 529.011719 675.828125 L 528.734375 629.980469 L 534.902344 624.167969 L 541.070312 618.351562 L 534.367188 612.890625 C 529.625 609.019531 524.898438 605.132812 520.183594 601.230469 C 516.070312 597.820312 512.453125 595.019531 512.140625 595.011719 C 511.832031 595 503.953125 601.640625 494.636719 609.769531 M 659.464844 606.285156 C 652.011719 612.488281 645.898438 617.816406 645.875 618.125 C 645.851562 618.433594 648.324219 621.324219 651.363281 624.550781 L 656.890625 630.414062 L 656.890625 676.042969 C 656.890625 727.917969 657.589844 739.488281 661.171875 746.871094 C 663.601562 751.875 671.3125 760.28125 675.558594 762.554688 C 677.804688 763.757812 678.492188 763.351562 693.417969 752.050781 C 709.890625 739.578125 713.089844 736.949219 713.089844 735.894531 C 713.089844 735.53125 712.335938 734.304688 711.410156 733.164062 L 709.734375 731.089844 L 704.792969 734.488281 C 696.265625 740.355469 691.652344 737.917969 690.03125 726.691406 C 689.558594 723.425781 689.164062 700.652344 689.15625 676.089844 L 689.136719 631.429688 L 695.65625 624.867188 L 702.171875 618.304688 L 688.652344 607.042969 C 681.214844 600.851562 674.652344 595.609375 674.070312 595.394531 C 673.488281 595.179688 666.917969 600.078125 659.464844 606.285156 M 752.15625 605.867188 C 745.011719 611.796875 737.558594 617.925781 735.589844 619.496094 C 732.25 622.15625 732.085938 622.507812 733.125 624.792969 C 734.511719 627.835938 736.035156 627.867188 740.355469 624.933594 C 746.851562 620.527344 752.253906 622.089844 760.101562 630.648438 C 770.554688 642.046875 794.164062 682.402344 794.164062 688.867188 C 794.164062 690.394531 775.34375 730.246094 773.960938 731.640625 C 773.550781 732.058594 767.148438 729.222656 759.734375 725.339844 L 746.253906 718.285156 L 739.351562 732.378906 C 735.558594 740.128906 732.761719 746.753906 733.136719 747.101562 C 733.511719 747.445312 740.972656 751.378906 749.710938 755.835938 C 764.230469 763.242188 765.703125 763.804688 766.757812 762.359375 C 767.390625 761.492188 774.695312 746.484375 782.996094 729.019531 C 791.292969 711.550781 798.339844 697.28125 798.65625 697.308594 C 798.972656 697.335938 801.71875 702.59375 804.761719 708.996094 C 819.105469 739.191406 831.34375 755.910156 843.351562 761.703125 C 847.078125 763.503906 848.160156 763.6875 849.644531 762.757812 C 852.195312 761.167969 878.929688 737.578125 878.90625 736.941406 C 878.894531 736.652344 878.136719 735.445312 877.226562 734.257812 L 875.566406 732.101562 L 872.050781 734.488281 C 868.039062 737.210938 866.082031 737.425781 862.457031 735.550781 C 857.257812 732.863281 848.394531 721 839.5 704.824219 C 833.695312 694.265625 817.199219 659.703125 817.199219 658.097656 C 817.199219 656.671875 831.644531 626.316406 832.320312 626.316406 C 832.585938 626.316406 838.710938 629.199219 845.925781 632.722656 C 853.148438 636.246094 859.160156 639.019531 859.289062 638.890625 C 859.605469 638.574219 872.476562 611.53125 872.476562 611.183594 C 872.476562 610.242188 839.964844 594.90625 839.363281 595.5625 C 838.957031 596.007812 833.140625 607.984375 826.4375 622.171875 C 819.738281 636.359375 813.929688 648.558594 813.527344 649.28125 C 813.011719 650.210938 811.773438 648.660156 809.242188 643.910156 C 803.476562 633.085938 790.753906 614.269531 785.59375 608.929688 C 780.84375 604.019531 768.160156 594.945312 766.175781 595.042969 C 765.609375 595.070312 759.300781 599.941406 752.15625 605.867188 M 950.328125 600.578125 C 940.046875 608.125 929.894531 613.722656 918.3125 618.222656 L 908.40625 622.074219 L 908.390625 670.03125 C 908.375 724.160156 908.230469 725.695312 902.390625 732.824219 C 897.6875 738.5625 898.523438 739.871094 907.472656 740.777344 C 919.070312 741.949219 928.316406 745.054688 943.878906 753 C 951.984375 757.136719 959.886719 761.28125 961.441406 762.207031 L 964.261719 763.890625 L 970.820312 758.902344 C 977.589844 753.757812 989.734375 747.3125 1005.375 740.554688 L 1014.355469 736.671875 L 1014.355469 677.320312 C 1014.355469 630.625 1014.109375 617.898438 1013.207031 617.648438 C 993.984375 612.285156 969.71875 602.445312 961.765625 596.78125 C 960.386719 595.796875 958.90625 595.03125 958.476562 595.078125 C 958.046875 595.125 954.378906 597.601562 950.328125 600.578125 M 1193.089844 600.273438 C 1180.078125 607.179688 1159.9375 616.378906 1152.394531 618.867188 L 1146.246094 620.890625 L 1145.867188 674.046875 C 1145.453125 732.242188 1145.441406 732.371094 1140.011719 737.492188 C 1136.136719 741.148438 1135.90625 743.988281 1139.425781 744.785156 C 1155.835938 748.503906 1166.027344 751.894531 1179.914062 758.257812 L 1192.070312 763.824219 L 1217.15625 746.414062 C 1230.953125 736.835938 1242.367188 728.59375 1242.519531 728.101562 C 1242.671875 727.605469 1242.066406 726.253906 1241.175781 725.09375 L 1239.554688 722.988281 L 1227.03125 731.402344 L 1214.507812 739.820312 L 1201.535156 734.664062 C 1194.402344 731.828125 1186.265625 728.648438 1183.457031 727.597656 L 1178.347656 725.6875 L 1178.371094 696.796875 L 1209.234375 675.148438 C 1226.210938 663.238281 1241.953125 652.253906 1244.214844 650.730469 C 1246.480469 649.210938 1248.34375 647.515625 1248.351562 646.960938 C 1248.375 645.566406 1205.277344 595.492188 1203.886719 595.296875 C 1203.269531 595.210938 1198.410156 597.449219 1193.089844 600.273438 M 414.125 611.171875 C 409.003906 615.414062 398.007812 621.847656 392.691406 623.71875 C 384.390625 626.636719 372.597656 627.804688 364.039062 626.558594 C 353.703125 625.050781 347.636719 622.648438 338.152344 616.304688 L 329.828125 610.738281 L 329.828125 666.089844 L 333.984375 662.433594 C 346.058594 651.804688 356.277344 647.472656 370.824219 646.816406 C 381.417969 646.339844 389.042969 647.777344 398.371094 652.003906 C 403.917969 654.519531 417.339844 663.675781 418.695312 665.871094 C 420.007812 667.996094 420.839844 666.558594 422.515625 659.253906 C 423.824219 653.550781 424.242188 648.316406 424.191406 638.292969 C 424.128906 625.921875 423.921875 624.363281 421.378906 617.164062 C 419.871094 612.890625 418.242188 609.277344 417.761719 609.140625 C 417.28125 609 415.648438 609.914062 414.125 611.171875 M 1178.347656 649.890625 L 1178.347656 685.4375 L 1182.726562 682.28125 C 1185.132812 680.542969 1193.941406 674.429688 1202.304688 668.691406 C 1210.664062 662.957031 1217.867188 657.949219 1218.308594 657.566406 C 1219.273438 656.726562 1181.257812 614.339844 1179.542969 614.339844 C 1178.585938 614.339844 1178.347656 621.394531 1178.347656 649.890625 M 941.796875 671.902344 L 942.035156 721.320312 L 948.484375 724.082031 C 952.03125 725.605469 957.464844 727.820312 960.5625 729.007812 C 963.660156 730.195312 969.117188 732.453125 972.695312 734.019531 C 976.269531 735.589844 979.648438 736.875 980.199219 736.875 C 980.917969 736.875 981.136719 722.535156 980.96875 686.929688 L 980.730469 636.980469 L 970.59375 632.503906 C 960.328125 627.964844 950.035156 624.25 944.558594 623.109375 L 941.558594 622.480469 Z M 367.601562 655.011719 C 355.8125 656.222656 344.304688 662.378906 334.96875 672.460938 L 329.828125 678.015625 L 329.828125 737.148438 L 337.429688 736.585938 C 362.804688 734.710938 386.269531 720.878906 404.988281 696.765625 C 408.21875 692.601562 417.351562 676.792969 417.351562 675.363281 C 417.351562 673.964844 411.394531 668.984375 403.777344 664.011719 C 392.742188 656.804688 380.273438 653.703125 367.601562 655.011719 " fill-opacity="1" fill-rule="evenodd"/></svg>